# xmcd
#
# Track frame offsets: 
#        150
#        17369
#        39066
#        51063
#        68517
#        92005
#        106825
#        121418
#        137681
#        153581
#        170970
#        190756
#        206137
#        226660
#        240882
#        260721
#        278004
#        295504
#        309988
#        320755
#
# Disc length: 4468 seconds
#
# Revision: 1
# Processed by: cddbd v1.5.1PL0 Copyright (c) Steve Scherf et al.
# Submitted via: ExactAudioCopy v0.95a5
#
DISCID=06117214
DTITLE=The Mavericks - The Definitive Collection
DYEAR=2004
DGENRE=Country
TTITLE0=This Broken Heart
TTITLE1=From Hell to Paradise
TTITLE2=Hey Good Lookin'
TTITLE3=What a Crying Shame
TTITLE4=I Should Have Been True
TTITLE5=There Goes My Heart
TTITLE6=What A Thrill
TTITLE7=All That Heaven Would Allow
TTITLE8=Missing You
TTITLE9=Here Comes The Rain
TTITLE10=All You Ever Do Is Bring Me Down (featuring Flaco Jemenez)
TTITLE11=The Writing On The Wall
TTITLE12=Blue Moon
TTITLE13=I Don't Care If You Don't Love Me Anymore)
TTITLE14=Dance The Night Away
TTITLE15=Dream River
TTITLE16=To Be With You
TTITLE17=Rancho Grande (Live)
TTITLE18=Think Of Me (When You're Lonely)
TTITLE19=Here Comes My Baby
EXTD=
EXTT0=
EXTT1=
EXTT2=
EXTT3=
EXTT4=
EXTT5=
EXTT6=
EXTT7=
EXTT8=
EXTT9=
EXTT10=
EXTT11=
EXTT12=
EXTT13=
EXTT14=
EXTT15=
EXTT16=
EXTT17=
EXTT18=
EXTT19=
PLAYORDER=
